<svg xmlns="http://www.w3.org/2000/svg" viewBox="0 0 576 512"><!--!Font Awesome Pro 6.5.2 by @fontawesome - https://fontawesome.com License - https://fontawesome.com/license (Commercial License) Copyright 2024 Fonticons, Inc.--><path d="M575.8 255.5c0 18-15 32.1-32 32.1h-32l.7 160.2c0 2.7-.2 5.4-.5 8.1V472c0 22.1-17.9 40-40 40H456c-1.1 0-2.2 0-3.3-.1c-1.4 .1-2.8 .1-4.2 .1H416 392c-22.1 0-40-17.9-40-40V360c0-4.4-3.6-8-8-8H232c-4.4 0-8 3.6-8 8v112c0 22.1-17.9 40-40 40H160 128c-1.4 0-2.8 0-4.2-.1c-1.1 0-2.2 .1-3.3 .1H104c-22.1 0-40-17.9-40-40V360c0-.9 0-1.9 .1-2.8V287.6H32c-18 0-32-14-32-32.1c0-9 3-17 10-24L266.4 8c7-7 13-8 21.6-8s15.6 1 22.6 8l256.4 223.5c7 7 10 15 10 24z"/></svg>
